<mxfile host="app.diagrams.net" modified="2023-10-17T04:58:27.876Z" agent="Mozilla/5.0 (Windows NT 10.0; Win64; x64) AppleWebKit/537.36 (KHTML, like Gecko) Chrome/117.0.0.0 Safari/537.36" etag="9vQODCWEsGf6c8Hq86Px" version="22.0.4" type="github">
  <diagram name="Halaman-1" id="6dqG_UIcluKhxPNVg8i8">
    <mxGraphModel dx="794" dy="456" grid="1" gridSize="10" guides="1" tooltips="1" connect="1" arrows="1" fold="1" page="1" pageScale="1" pageWidth="827" pageHeight="1169" math="0" shadow="0">
      <root>
        <mxCell id="0" />
        <mxCell id="1" parent="0" />
        <mxCell id="pOQkpUZ9LAGof1hnzOZG-1" style="edgeStyle=orthogonalEdgeStyle;rounded=0;orthogonalLoop=1;jettySize=auto;html=1;exitX=0.5;exitY=1;exitDx=0;exitDy=0;exitPerimeter=0;" parent="1" source="pOQkpUZ9LAGof1hnzOZG-2" edge="1">
          <mxGeometry relative="1" as="geometry">
            <mxPoint x="380" y="140" as="targetPoint" />
          </mxGeometry>
        </mxCell>
        <mxCell id="pOQkpUZ9LAGof1hnzOZG-2" value="Star" style="strokeWidth=2;html=1;shape=mxgraph.flowchart.start_1;whiteSpace=wrap;" parent="1" vertex="1">
          <mxGeometry x="330" y="40" width="100" height="60" as="geometry" />
        </mxCell>
        <mxCell id="pOQkpUZ9LAGof1hnzOZG-3" value="" style="edgeStyle=orthogonalEdgeStyle;rounded=0;orthogonalLoop=1;jettySize=auto;html=1;" parent="1" source="pOQkpUZ9LAGof1hnzOZG-4" target="pOQkpUZ9LAGof1hnzOZG-9" edge="1">
          <mxGeometry relative="1" as="geometry" />
        </mxCell>
        <mxCell id="pOQkpUZ9LAGof1hnzOZG-4" value="Bil" style="shape=parallelogram;html=1;strokeWidth=2;perimeter=parallelogramPerimeter;whiteSpace=wrap;rounded=1;arcSize=12;size=0.23;" parent="1" vertex="1">
          <mxGeometry x="320" y="140" width="110" height="60" as="geometry" />
        </mxCell>
        <mxCell id="pOQkpUZ9LAGof1hnzOZG-5" style="edgeStyle=orthogonalEdgeStyle;rounded=0;orthogonalLoop=1;jettySize=auto;html=1;exitX=1;exitY=0.5;exitDx=0;exitDy=0;" parent="1" source="pOQkpUZ9LAGof1hnzOZG-9" target="pOQkpUZ9LAGof1hnzOZG-10" edge="1">
          <mxGeometry relative="1" as="geometry" />
        </mxCell>
        <mxCell id="pOQkpUZ9LAGof1hnzOZG-6" value="no" style="edgeLabel;html=1;align=center;verticalAlign=middle;resizable=0;points=[];" parent="pOQkpUZ9LAGof1hnzOZG-5" vertex="1" connectable="0">
          <mxGeometry x="-0.2469" y="-1" relative="1" as="geometry">
            <mxPoint as="offset" />
          </mxGeometry>
        </mxCell>
        <mxCell id="pOQkpUZ9LAGof1hnzOZG-7" style="edgeStyle=orthogonalEdgeStyle;rounded=0;orthogonalLoop=1;jettySize=auto;html=1;exitX=0.5;exitY=1;exitDx=0;exitDy=0;" parent="1" source="pOQkpUZ9LAGof1hnzOZG-9" target="pOQkpUZ9LAGof1hnzOZG-12" edge="1">
          <mxGeometry relative="1" as="geometry" />
        </mxCell>
        <mxCell id="pOQkpUZ9LAGof1hnzOZG-8" value="yes" style="edgeLabel;html=1;align=center;verticalAlign=middle;resizable=0;points=[];" parent="pOQkpUZ9LAGof1hnzOZG-7" vertex="1" connectable="0">
          <mxGeometry x="-0.3041" relative="1" as="geometry">
            <mxPoint as="offset" />
          </mxGeometry>
        </mxCell>
        <mxCell id="pOQkpUZ9LAGof1hnzOZG-9" value="bil mod 2 = 0" style="rhombus;whiteSpace=wrap;html=1;strokeWidth=2;rounded=1;arcSize=12;" parent="1" vertex="1">
          <mxGeometry x="317.5" y="240" width="115" height="110" as="geometry" />
        </mxCell>
        <mxCell id="pOQkpUZ9LAGof1hnzOZG-10" value="ganjil" style="shape=parallelogram;html=1;strokeWidth=2;perimeter=parallelogramPerimeter;whiteSpace=wrap;rounded=1;arcSize=12;size=0.23;" parent="1" vertex="1">
          <mxGeometry x="500" y="265" width="100" height="60" as="geometry" />
        </mxCell>
        <mxCell id="pOQkpUZ9LAGof1hnzOZG-11" style="edgeStyle=orthogonalEdgeStyle;rounded=0;orthogonalLoop=1;jettySize=auto;html=1;exitX=0.5;exitY=1;exitDx=0;exitDy=0;" parent="1" source="pOQkpUZ9LAGof1hnzOZG-12" target="pOQkpUZ9LAGof1hnzOZG-13" edge="1">
          <mxGeometry relative="1" as="geometry">
            <mxPoint x="375" y="530" as="targetPoint" />
          </mxGeometry>
        </mxCell>
        <mxCell id="pOQkpUZ9LAGof1hnzOZG-12" value="genap&amp;nbsp;" style="shape=parallelogram;html=1;strokeWidth=2;perimeter=parallelogramPerimeter;whiteSpace=wrap;rounded=1;arcSize=12;size=0.23;" parent="1" vertex="1">
          <mxGeometry x="325" y="410" width="100" height="60" as="geometry" />
        </mxCell>
        <mxCell id="pOQkpUZ9LAGof1hnzOZG-13" value="end" style="strokeWidth=2;html=1;shape=mxgraph.flowchart.terminator;whiteSpace=wrap;" parent="1" vertex="1">
          <mxGeometry x="325" y="520" width="100" height="60" as="geometry" />
        </mxCell>
      </root>
    </mxGraphModel>
  </diagram>
</mxfile>
